<svg width="36" height="36" viewBox="0 0 36 36" fill="none" xmlns="http://www.w3.org/2000/svg">
<path d="M18.2578 24.9109C17.2349 25.4002 15.8961 25.0776 15.1352 24.1175C14.4684 23.2577 14.341 21.4192 14.8671 20.4764C15.6233 19.1524 17.1707 18.9958 18.1569 20.1454C18.4741 20.5079 18.7787 20.8822 19.0827 21.2808C19.6906 22.078 19.6972 23.4874 19.0665 24.2689C18.8401 24.5288 18.5195 24.6885 18.2578 24.9109ZM17.8414 21.7631C17.7244 21.6135 17.6427 21.5016 17.5485 21.4013C17.2195 21.0262 16.8819 20.9424 16.4392 21.1225C16.0701 21.2807 16.0253 21.5586 16.1241 21.9141C16.1675 22.0856 16.0889 22.2775 16.0957 22.4599C16.1156 22.6063 16.1458 22.8138 16.2408 22.8898C16.5366 23.1545 16.8449 23.4074 17.2046 23.5648C17.6482 23.7614 18.132 23.4247 18.0862 22.9251C18.0492 22.5352 17.9276 22.1303 17.8414 21.7631Z" fill="#E2E2CF"/>
<path d="M9.28098 0.858088C10.1531 0.53396 11.397 0.78069 12.0217 1.42046C12.4699 1.87229 12.7577 2.40398 12.9213 3.02884C13.2824 4.36471 12.3315 6.10768 10.4131 5.66908C9.70103 5.51244 9.02793 5.27201 8.53486 4.69724C8.06534 4.14753 7.88998 3.51014 8.08086 2.81169C8.20347 2.36615 8.38639 1.93472 8.60464 1.54087C8.78251 1.27934 9.0678 1.08202 9.28098 0.858088ZM11.4751 2.64195C11.2586 2.16116 10.8975 2.0523 10.5011 2.30677C9.93204 2.65284 9.74187 3.32701 10.0275 3.93153C10.1534 4.19072 10.3293 4.40292 10.6574 4.40137C10.9854 4.39982 11.2442 4.27455 11.4103 4.00049C11.6793 3.53539 11.632 3.08437 11.4751 2.64195Z" fill="#E2E2CF"/>
<path d="M31.4627 12.2657C32.6547 11.8062 33.5706 12.0544 34.3645 12.724C34.9811 13.2298 35.3124 13.933 35.4474 14.7027C35.5905 15.6064 35.0798 16.4403 34.1922 16.8732C34.0444 16.9414 33.8848 16.9969 33.7495 17.0533C32.52 17.5481 31.0589 16.8449 30.6229 15.5795C30.3445 14.7322 30.1992 13.9014 30.721 13.1043C30.9503 12.7473 31.287 12.4544 31.4627 12.2657ZM32.3001 13.1068C31.7319 13.8295 31.61 14.2507 31.7332 15.0079C31.8365 15.6187 32.4678 16.04 33.0672 15.9014C33.679 15.7511 34.0201 15.3126 34.2059 14.7841C34.366 14.3033 34.0738 13.9173 33.7199 13.5657C33.3188 13.164 32.8473 13.088 32.3001 13.1068Z" fill="#E2E2CF"/>
<path d="M34.4545 -3.33373C34.9043 -2.52953 34.4115 -1.07546 33.393 -0.731761C32.5826 -0.442078 31.8412 -0.429585 31.0518 -0.843847C30.0954 -1.36069 29.4349 -2.83988 29.853 -3.82256C29.9969 -4.17022 30.3101 -4.48811 30.6314 -4.67211C31.5212 -5.17791 32.8583 -5.2076 33.6921 -4.24522C33.9504 -3.9453 34.2087 -3.64539 34.4545 -3.33373ZM33.1851 -3.13177C32.8862 -3.70027 32.1204 -4.08947 31.7005 -3.86006C31.2189 -3.5962 30.9266 -2.75523 31.143 -2.27444C31.3249 -1.85551 32.184 -1.74271 32.776 -2.03945C33.2326 -2.27982 33.3913 -2.71206 33.1851 -3.13177Z" fill="#E2E2CF"/>
</svg>
